<?xml version="1.0" encoding="UTF-8"?>
<svg version="1.1" xmlns="http://www.w3.org/2000/svg" width="392" height="60">
<path d="M0 0 C3.96 0 7.92 0 12 0 C16.29 12.21 20.58 24.42 25 37 C28.89999577 27.72645985 28.89999577 27.72645985 32.45703125 18.359375 C32.84697266 17.27011719 33.23691406 16.18085938 33.63867188 15.05859375 C34.02603516 13.96675781 34.41339844 12.87492188 34.8125 11.75 C35.21919922 10.61175781 35.62589844 9.47351563 36.04492188 8.30078125 C37.03275291 5.53485435 38.01678405 2.76757081 39 0 C42.63 0 46.26 0 50 0 C50 17.16 50 34.32 50 52 C47.36 52 44.72 52 42 52 C41.505 34.675 41.505 34.675 41 17 C37.04 27.56 33.08 38.12 29 49 C26.03 49 23.06 49 20 49 C16.04 37.78 12.08 26.56 8 15 C7.67 27.21 7.34 39.42 7 52 C4.69 52 2.38 52 0 52 C0 34.84 0 17.68 0 0 Z " fill="#FFA200" transform="translate(326,3)"/>
<path d="M0 0 C2.97 0 5.94 0 9 0 C9 7.26 9 14.52 9 22 C16.59 22 24.18 22 32 22 C32 14.74 32 7.48 32 0 C34.97 0 37.94 0 41 0 C41 17.16 41 34.32 41 52 C38.03 52 35.06 52 32 52 C32 44.08 32 36.16 32 28 C24.41 28 16.82 28 9 28 C9 35.92 9 43.84 9 52 C6.03 52 3.06 52 0 52 C0 34.84 0 17.68 0 0 Z " fill="#FFA200" transform="translate(100,3)"/>
<path d="M0 0 C23 0 23 0 29 3 C32.46342083 6.80976291 32.44994367 10.70399842 32.2890625 15.6328125 C31.67776019 20.63888277 28.69368372 23.78292063 25 27 C24.34 27 23.68 27 23 27 C26.05189743 32.5852686 29.53101995 37.71469276 33.25 42.875 C34.34062672 44.39173205 35.42928519 45.90988206 36.515625 47.4296875 C36.99290039 48.09210449 37.47017578 48.75452148 37.96191406 49.43701172 C39 51 39 51 39 52 C35.46157424 52.71783637 32.51856769 52.8947215 29 52 C25.62344696 48.77692664 23.39497378 44.98138803 21 41 C19.83922437 39.30844235 18.67316049 37.62049192 17.5 35.9375 C15 32.2606383 15 32.2606383 15 30 C12.69 30 10.38 30 8 30 C8 37.26 8 44.52 8 52 C5.36 52 2.72 52 0 52 C0 34.84 0 17.68 0 0 Z M8 6 C8 11.94 8 17.88 8 24 C16.3804428 23.7256868 16.3804428 23.7256868 23 19 C24.42041821 16.15916359 24.31452272 14.14522722 24 11 C22.26242349 8.70391676 20.89909428 7.38532612 18.25 6.25 C14.85322068 5.87258008 11.41768278 6 8 6 Z " fill="#FFA200" transform="translate(192,3)"/>
<path d="M0 0 C2.64 0 5.28 0 8 0 C8.01458252 1.08418213 8.02916504 2.16836426 8.04418945 3.28540039 C8.10243472 7.33178664 8.1796647 11.37763159 8.26245117 15.42358398 C8.29557767 17.17023899 8.32364737 18.91699788 8.34643555 20.66381836 C8.38020881 23.1838787 8.43253347 25.70299752 8.48828125 28.22265625 C8.49467117 28.99585709 8.5010611 29.76905792 8.50764465 30.56568909 C8.64561721 35.72542741 9.58836531 39.4124875 12 44 C15.72542853 46.62971426 19.63143993 46.1597943 23.9765625 45.5390625 C26.16534403 45.11579767 26.16534403 45.11579767 28 43.25 C30.22619773 38.2410551 30.19789241 33.03782879 30.31640625 27.63671875 C30.33718735 26.84473587 30.35796844 26.05275299 30.37937927 25.23677063 C30.44447804 22.72043072 30.50357423 20.20399128 30.5625 17.6875 C30.605723 15.97590139 30.64933848 14.26431265 30.69335938 12.55273438 C30.80011847 8.36859016 30.90149635 4.18434638 31 0 C33.31 0 35.62 0 38 0 C38.07444911 5.56841139 38.12874318 11.13652964 38.16479492 16.70532227 C38.17983246 18.59762625 38.20026785 20.48989566 38.22631836 22.38208008 C38.26292399 25.11027586 38.2797769 27.83800871 38.29296875 30.56640625 C38.30845261 31.40522842 38.32393646 32.2440506 38.33988953 33.10829163 C38.34157845 39.0733731 37.53430048 44.05651559 33.5 48.7421875 C28.55749955 52.47480503 25.31561828 53.17168539 19.1875 53.25 C17.38345703 53.28867188 17.38345703 53.28867188 15.54296875 53.328125 C10.49274774 52.86040883 7.22891495 51.297188 3.75 47.625 C-0.02233699 41.96649451 -0.27577919 37.38098683 -0.1953125 30.76171875 C-0.1924826 29.88095169 -0.18965271 29.00018463 -0.18673706 28.09272766 C-0.17557833 25.29084455 -0.15048171 22.48928584 -0.125 19.6875 C-0.11496463 17.78320775 -0.10583975 15.87891048 -0.09765625 13.97460938 C-0.07565309 9.31628203 -0.04115294 4.65819594 0 0 Z " fill="#FFA200" transform="translate(276,3)"/>
<path d="M0 0 C9.9 0 19.8 0 30 0 C30 1.98 30 3.96 30 6 C23.07 6 16.14 6 9 6 C9 11.28 9 16.56 9 22 C14.94 22 20.88 22 27 22 C27 23.98 27 25.96 27 28 C21.06 28 15.12 28 9 28 C9 33.94 9 39.88 9 46 C16.59 46 24.18 46 32 46 C32 47.98 32 49.96 32 52 C21.44 52 10.88 52 0 52 C0 34.84 0 17.68 0 0 Z " fill="#FFA200" transform="translate(237,3)"/>
<path d="M0 0 C9.9 0 19.8 0 30 0 C30 1.98 30 3.96 30 6 C23.07 6 16.14 6 9 6 C9 11.28 9 16.56 9 22 C14.94 22 20.88 22 27 22 C27 23.98 27 25.96 27 28 C21.06 28 15.12 28 9 28 C9 33.94 9 39.88 9 46 C16.59 46 24.18 46 32 46 C32 47.98 32 49.96 32 52 C21.44 52 10.88 52 0 52 C0 34.84 0 17.68 0 0 Z " fill="#FFA200" transform="translate(153,3)"/>
<path d="M0 0 C9.9 0 19.8 0 30 0 C30 1.98 30 3.96 30 6 C23.07 6 16.14 6 9 6 C9 11.28 9 16.56 9 22 C14.94 22 20.88 22 27 22 C27 23.98 27 25.96 27 28 C21.06 28 15.12 28 9 28 C9 33.94 9 39.88 9 46 C16.59 46 24.18 46 32 46 C32 47.98 32 49.96 32 52 C21.44 52 10.88 52 0 52 C0 34.84 0 17.68 0 0 Z " fill="#FFA200" transform="translate(15,3)"/>
<path d="M0 0 C14.85 0 29.7 0 45 0 C45 1.98 45 3.96 45 6 C39.06 6 33.12 6 27 6 C27 21.18 27 36.36 27 52 C24.36 52 21.72 52 19 52 C19 36.82 19 21.64 19 6 C12.73 6 6.46 6 0 6 C0 4.02 0 2.04 0 0 Z " fill="#FFA200" transform="translate(48,3)"/>
</svg>
