<?xml version="1.0" encoding="UTF-8"?>
<!DOCTYPE svg PUBLIC "-//W3C//DTD SVG 1.1//EN" "http://www.w3.org/Graphics/SVG/1.1/DTD/svg11.dtd">
<svg xmlns="http://www.w3.org/2000/svg" version="1.1" width="297px" height="58px" style="shape-rendering:geometricPrecision; text-rendering:geometricPrecision; image-rendering:optimizeQuality; fill-rule:evenodd; clip-rule:evenodd" xmlns:xlink="http://www.w3.org/1999/xlink">
<g><path style="opacity:0.869" fill="#fe9c00" d="M 31.5,5.5 C 37.5092,5.33385 43.5092,5.50051 49.5,6C 52.1905,8.81193 51.5238,10.6453 47.5,11.5C 42.17,10.2993 36.8367,10.2993 31.5,11.5C 28.3397,24.1413 25.173,36.808 22,49.5C 18.5529,51.3526 16.7195,50.3526 16.5,46.5C 18.859,35.9227 21.5257,25.4227 24.5,15C 24.1667,14.5 23.8333,14 23.5,13.5C 19.1515,15.5916 14.6515,17.2582 10,18.5C 8.3376,18.6125 7.17094,17.9458 6.5,16.5C 7.36863,14.1322 9.0353,12.6322 11.5,12C 18.119,9.29265 24.7857,7.12598 31.5,5.5 Z"/></g>
<g><path style="opacity:0.863" fill="#fe9c00" d="M 178.5,19.5 C 182.158,18.6797 184.491,20.0131 185.5,23.5C 189.858,20.5389 194.525,19.8722 199.5,21.5C 200.251,22.376 200.751,23.376 201,24.5C 205.598,20.8766 210.765,19.71 216.5,21C 219.428,24.2572 220.262,28.0906 219,32.5C 217.526,38.756 215.359,44.756 212.5,50.5C 210.604,51.4656 208.604,51.7989 206.5,51.5C 208.211,45.1919 210.045,38.8585 212,32.5C 212.851,29.947 212.518,27.6137 211,25.5C 200.146,30.1382 194.646,38.4715 194.5,50.5C 190.876,52.3962 188.876,51.3962 188.5,47.5C 189.896,42.1436 191.396,36.8102 193,31.5C 193.808,29.4213 193.641,27.4213 192.5,25.5C 181.717,30.7157 176.217,39.3824 176,51.5C 174.333,52.8333 172.667,52.8333 171,51.5C 172.544,40.6552 175.044,29.9885 178.5,19.5 Z"/></g>
<g><path style="opacity:0.85" fill="#fe9c00" d="M 60.5,20.5 C 68.2759,19.9396 72.2759,23.6062 72.5,31.5C 70.5027,46.3487 62.1694,53.182 47.5,52C 41.8036,47.0048 40.9703,41.1715 45,34.5C 48.5091,27.8555 53.6757,23.1888 60.5,20.5 Z M 63.5,26.5 C 64.6006,27.8484 65.6006,29.3484 66.5,31C 65.5408,38.2685 61.8741,43.6018 55.5,47C 51.5277,47.6822 49.5277,46.0156 49.5,42C 51.247,34.091 55.9136,28.9244 63.5,26.5 Z"/></g>
<g><path style="opacity:0.85" fill="#fe9c00" d="M 121.5,20.5 C 129.276,19.9396 133.276,23.6062 133.5,31.5C 131.503,46.3487 123.169,53.182 108.5,52C 102.804,47.0048 101.97,41.1715 106,34.5C 109.509,27.8555 114.676,23.1888 121.5,20.5 Z M 124.5,26.5 C 125.601,27.8484 126.601,29.3484 127.5,31C 126.541,38.2685 122.874,43.6018 116.5,47C 112.528,47.6822 110.528,46.0156 110.5,42C 112.247,34.091 116.914,28.9244 124.5,26.5 Z"/></g>
<g><path style="opacity:0.85" fill="#fe9c00" d="M 242.5,20.5 C 250.276,19.9396 254.276,23.6062 254.5,31.5C 252.503,46.3487 244.169,53.182 229.5,52C 223.804,47.0048 222.97,41.1715 227,34.5C 230.509,27.8555 235.676,23.1888 242.5,20.5 Z M 245.5,26.5 C 246.601,27.8484 247.601,29.3484 248.5,31C 247.541,38.2685 243.874,43.6018 237.5,47C 233.528,47.6822 231.528,46.0156 231.5,42C 233.247,34.091 237.914,28.9244 245.5,26.5 Z"/></g>
<g><path style="opacity:0.851" fill="#fe9c00" d="M 267.5,20.5 C 269.5,20.5 271.5,20.5 273.5,20.5C 273.281,21.675 273.614,22.675 274.5,23.5C 278.434,20.7975 282.768,19.9642 287.5,21C 289.045,22.8219 289.712,24.9886 289.5,27.5C 287.984,35.7162 285.651,43.7162 282.5,51.5C 280.604,52.4656 278.604,52.7989 276.5,52.5C 278.015,44.2861 280.348,36.2861 283.5,28.5C 283.547,26.9996 282.881,25.9996 281.5,25.5C 269.837,30.1422 264.17,38.8088 264.5,51.5C 262.801,51.6602 261.134,51.4935 259.5,51C 258.919,50.1074 258.585,49.1074 258.5,48C 260.807,38.578 263.807,29.4113 267.5,20.5 Z"/></g>
<g><path style="opacity:0.841" fill="#fe9c00" d="M 82.5,21.5 C 84.1667,21.5 85.8333,21.5 87.5,21.5C 87.7885,26.2745 89.4552,26.7745 92.5,23C 96.2441,22.0715 99.7441,22.5715 103,24.5C 105.358,27.4829 104.691,29.4829 101,30.5C 98.849,30.3569 97.1824,29.3569 96,27.5C 92.7899,28.7015 90.1233,30.7015 88,33.5C 85.5583,39.2667 84.0583,45.2667 83.5,51.5C 81.8008,51.6602 80.1341,51.4935 78.5,51C 77.9415,50.2753 77.6082,49.4419 77.5,48.5C 79.6497,39.5721 81.3164,30.5721 82.5,21.5 Z"/></g>
<g><path style="opacity:0.872" fill="#fe9c00" d="M 152.5,23.5 C 155.978,23.1842 159.312,23.6842 162.5,25C 165.441,29.8343 164.441,33.8343 159.5,37C 155.837,38.7077 152.004,39.8743 148,40.5C 146.393,40.7692 145.226,41.6026 144.5,43C 145.476,45.1416 147.143,46.3083 149.5,46.5C 154.666,45.0707 159.666,43.404 164.5,41.5C 163.963,46.8102 160.963,49.9769 155.5,51C 143.109,54.4277 137.276,49.9277 138,37.5C 140.62,34.4242 143.12,31.2576 145.5,28C 147.76,26.2117 150.093,24.7117 152.5,23.5 Z M 148.5,34.5 C 150.372,30.7237 153.205,29.057 157,29.5C 157.507,30.9961 157.007,32.1627 155.5,33C 153.26,33.977 150.927,34.477 148.5,34.5 Z"/></g>
</svg>
